<svg xmlns="http://www.w3.org/2000/svg" width="80" height="80" viewBox="0 0 80 80" fill="none">
<g clip-path="url(#clip0_11803_45453)">
<path d="M39.9732 80C62.0497 80 79.9463 62.1034 79.9463 40.0269C79.9463 17.9503 62.0497 0.0537109 39.9732 0.0537109C17.8966 0.0537109 0 17.9503 0 40.0269C0 62.1034 17.8966 80 39.9732 80Z" fill="#E6FAFF"/>
<g clip-path="url(#clip1_11803_45453)">
<path d="M46.1537 31.2631C53.7573 26.4496 59.9385 30.3125 59.9619 39.8907L60 54.5705L32.4706 71.9999L32.4325 57.3201C32.407 47.7419 38.548 36.0789 46.1516 31.2655L46.1537 31.2631Z" fill="#0066F3"/>
<path d="M48.9285 29.8617C48.9518 29.8524 48.9751 29.8478 48.9984 29.8385C49.3397 29.713 49.6725 29.6177 50.0053 29.5294C50.1961 29.4782 50.3826 29.4364 50.5692 29.3969C50.8151 29.3457 51.0588 29.3039 51.2984 29.2737C51.4361 29.2574 51.5761 29.2388 51.7117 29.2272C52.0106 29.204 52.3053 29.197 52.5935 29.2086C52.6614 29.2086 52.7292 29.2086 52.797 29.2086C53.1468 29.2295 53.4838 29.2783 53.8145 29.3481C53.8972 29.3643 53.9756 29.3899 54.0562 29.4085C54.3148 29.4736 54.5692 29.5526 54.8151 29.6479C54.8914 29.6781 54.9698 29.7037 55.0461 29.7385C55.3577 29.8733 55.6608 30.0267 55.9491 30.208L43.5146 22.2847C43.4891 22.2685 43.4637 22.2522 43.4383 22.2382C43.2157 22.1011 42.9846 21.9779 42.7472 21.8687C42.7027 21.8478 42.6561 21.8362 42.6116 21.8152C42.5352 21.7827 42.4568 21.7548 42.3805 21.7246C42.2618 21.6781 42.1452 21.6246 42.0223 21.5851C41.893 21.5433 41.7573 21.5177 41.6237 21.4852C41.5432 21.4643 41.4626 21.441 41.3821 21.4248C41.3376 21.4155 41.2952 21.3992 41.2507 21.3922C40.9793 21.3411 40.7016 21.3062 40.4197 21.2853C40.4028 21.2853 40.3837 21.2853 40.3667 21.2853C40.301 21.2807 40.2311 21.2853 40.1632 21.2853C39.947 21.2783 39.7308 21.269 39.5082 21.2807C39.434 21.2853 39.3556 21.2993 39.2814 21.3062C39.1457 21.3155 39.0058 21.3341 38.868 21.3527C38.7387 21.369 38.6137 21.3736 38.4823 21.3945C38.3699 21.4131 38.2512 21.4527 38.1388 21.4759C37.9523 21.5154 37.7658 21.5572 37.575 21.6084C37.4732 21.6363 37.3736 21.6479 37.2719 21.6804C37.0408 21.7502 36.8055 21.8315 36.5681 21.9175C36.5448 21.9268 36.5215 21.9314 36.4981 21.9407C36.2183 22.0453 35.9364 22.1615 35.6502 22.2917C35.5379 22.3428 35.4234 22.4079 35.3111 22.4614C35.203 22.5148 35.0927 22.5683 34.9825 22.6264C34.567 22.8425 34.1473 23.075 33.7213 23.3446C33.2782 23.6258 32.8416 23.9326 32.4091 24.258C32.2692 24.3649 32.1314 24.4811 31.9915 24.5904C31.7011 24.8205 31.4128 25.0552 31.1267 25.3039C30.9677 25.4434 30.8108 25.5875 30.654 25.7316C30.3932 25.9733 30.1325 26.2196 29.8781 26.4753C29.7213 26.6334 29.5665 26.7914 29.4118 26.9518C29.3164 27.0517 29.2167 27.147 29.1214 27.2493C29.0196 27.3585 28.9285 27.4817 28.8288 27.5909C28.5172 27.9373 28.212 28.2952 27.911 28.6624C27.8156 28.7786 27.7117 28.8855 27.6184 29.0041C27.54 29.104 27.4658 29.2109 27.3874 29.3132C27.2051 29.5479 27.0291 29.7873 26.8511 30.0291C26.7345 30.1871 26.6137 30.3359 26.5013 30.4962C26.4081 30.6264 26.3233 30.7635 26.2321 30.896C26.1028 31.0843 25.9756 31.2748 25.8484 31.4678C25.7615 31.5979 25.6704 31.7257 25.5856 31.8582C25.4414 32.0814 25.3079 32.3138 25.168 32.5416C25.079 32.688 24.9878 32.8321 24.8988 32.9808C24.8627 33.0413 24.8246 33.1017 24.7886 33.1621C24.5448 33.5828 24.3074 34.0081 24.0784 34.4381C24.0636 34.466 24.0488 34.4962 24.0339 34.5241C23.9873 34.6101 23.9449 34.7008 23.9004 34.7868C23.7414 35.0912 23.5824 35.398 23.4319 35.7072C23.362 35.8513 23.2984 35.9977 23.2305 36.1441C23.1606 36.2952 23.0906 36.4463 23.0207 36.5973C22.9613 36.7298 22.8977 36.86 22.8384 36.9925C22.6836 37.3457 22.5374 37.7037 22.3932 38.0616C22.3678 38.1244 22.3402 38.1871 22.3148 38.2499C22.3084 38.2661 22.2999 38.2847 22.2936 38.301C22.1155 38.7496 21.9481 39.2005 21.7891 39.6537C21.7594 39.7374 21.7361 39.821 21.7064 39.9047C21.6492 40.0721 21.5983 40.2371 21.5432 40.4044C21.469 40.6299 21.3906 40.853 21.3227 41.0785C21.2697 41.2551 21.2252 41.4317 21.1744 41.6084C21.115 41.8176 21.0556 42.0244 21.0005 42.2336C20.9666 42.3614 20.9263 42.4893 20.8945 42.6171C20.8352 42.8472 20.7928 43.0773 20.7398 43.3074C20.6804 43.5654 20.619 43.8234 20.566 44.0814C20.5469 44.1697 20.5236 44.2603 20.5066 44.3486C20.4706 44.5346 20.4515 44.7182 20.4197 44.9018C20.3498 45.3062 20.284 45.7083 20.2311 46.1104C20.2162 46.2196 20.1929 46.3335 20.1781 46.4428C20.1484 46.6961 20.1335 46.9448 20.1102 47.1958C20.0954 47.3748 20.0742 47.5514 20.0615 47.7281C20.0233 48.2882 20 48.846 20 49.3969L20.0382 64.0767L32.4727 72L32.4346 57.3202C32.4346 56.7717 32.4579 56.2115 32.496 55.6514C32.5087 55.4747 32.5278 55.2958 32.5427 55.1191C32.5745 54.7589 32.6147 54.3963 32.6614 54.0314C32.7144 53.6316 32.7801 53.2295 32.85 52.8274C32.8988 52.5532 32.9412 52.2789 32.9963 52.0023C33.0493 51.7467 33.1086 51.4887 33.168 51.2307C33.2507 50.8728 33.3333 50.5125 33.4287 50.1546C33.4838 49.9477 33.5432 49.7385 33.6025 49.5317C33.717 49.1296 33.84 48.7252 33.9714 48.3254C34.0265 48.1604 34.0774 47.993 34.1346 47.828C34.3254 47.2725 34.5246 46.7194 34.743 46.1708C34.7684 46.1081 34.796 46.0477 34.8193 45.9872C35.0186 45.4945 35.2305 45.0064 35.4489 44.5206C35.5167 44.3696 35.5866 44.2185 35.6566 44.0697C35.8707 43.6119 36.0954 43.1586 36.3264 42.7101C36.371 42.6241 36.4134 42.5334 36.46 42.4474C36.7377 41.9245 37.026 41.4108 37.327 40.9018C37.4139 40.7554 37.505 40.6113 37.5941 40.4649C37.8166 40.0999 38.0435 39.742 38.2766 39.3887C38.4017 39.1982 38.531 39.0076 38.6582 38.8193C38.8596 38.5241 39.0694 38.2359 39.2793 37.95C39.4552 37.7083 39.6333 37.4689 39.8156 37.2342C39.9873 37.0134 40.1632 36.7995 40.3392 36.5834C40.6381 36.2162 40.9454 35.8606 41.2549 35.5119C41.4478 35.2958 41.6428 35.0796 41.84 34.8704C41.9947 34.7101 42.1495 34.552 42.3063 34.394C42.5628 34.1383 42.8214 33.8896 43.0843 33.6479C43.2411 33.5038 43.3959 33.3597 43.5549 33.2202C43.8389 32.9715 44.1293 32.7368 44.4197 32.5067C44.5596 32.3975 44.6953 32.2812 44.8373 32.1743C45.2697 31.8489 45.7064 31.5398 46.1495 31.2609C46.5755 30.9913 46.9952 30.7589 47.4107 30.5427C47.5209 30.4869 47.629 30.4312 47.7393 30.3777C48.1399 30.1825 48.5363 30.0012 48.9263 29.8571L48.9285 29.8617Z" fill="#003781"/>
<path d="M50.4717 18.6985C50.4717 14.838 48.6509 11.3795 45.6005 9.44809C42.5502 7.51665 38.9084 7.51665 35.8602 9.44809C31.0632 12.4835 28.0828 18.1454 28.0828 24.2186V37.0553C28.0828 37.5643 28.3922 38.0733 29.0049 38.4615C30.2258 39.2354 32.2078 39.2285 33.4203 38.4568C34.0266 38.071 34.3297 37.562 34.3255 37.0553V24.2186C34.3255 20.5858 36.1082 17.1994 38.9805 15.3795C40.5597 14.3755 41.9482 15.0448 42.476 15.3795C43.0017 15.7119 44.2248 16.702 44.2248 18.6985V26.9821H44.229C44.229 27.4911 44.5343 27.9978 45.1448 28.3859C46.3658 29.1599 48.3562 29.1599 49.5687 28.3859C50.175 28.0001 50.476 27.4911 50.4696 26.9821V18.6985H50.4717Z" fill="white"/>
<path d="M47.6922 39.6375L50.2316 42.6473L54.4987 41.5526L51.813 47.7165L51.9296 53.2505L47.7282 54.0477L43.5374 58.5637L43.6307 52.8972L40.9216 50.1476L45.176 45.8501L47.6922 39.6375Z" fill="white"/>
</g>
</g>
<defs>
<clipPath id="clip0_11803_45453">
<rect width="80" height="80" fill="white"/>
</clipPath>
<clipPath id="clip1_11803_45453">
<rect width="40" height="64" fill="white" transform="translate(20 8)"/>
</clipPath>
</defs>
</svg>