<svg xmlns="http://www.w3.org/2000/svg" width="155" height="93" viewBox="0 0 155 93" fill="none">
<rect width="10" height="8" transform="matrix(-1 0 0 1 154.24 43)" fill="#0E397C"/>
<path d="M96.2397 57.5C96.2397 55.567 95.2324 54 93.9897 54H76.4897C75.2471 54 74.2397 55.567 74.2397 57.5C74.2397 59.433 75.2471 61 76.4897 61H93.9897C95.2324 61 96.2397 59.433 96.2397 57.5Z" fill="#0E397C"/>
<path d="M80.2397 59.5C80.2397 59.7761 79.3443 60 78.2397 60C77.1352 60 76.2397 59.7761 76.2397 59.5C76.2397 59.2239 77.1352 59 78.2397 59C79.3443 59 80.2397 59.2239 80.2397 59.5Z" fill="#E1F6FF"/>
<path d="M96.2397 35.5C96.2397 33.567 95.2324 32 93.9897 32H76.4897C75.2471 32 74.2397 33.567 74.2397 35.5C74.2397 37.433 75.2471 39 76.4897 39H93.9897C95.2324 39 96.2397 37.433 96.2397 35.5Z" fill="#0E397C"/>
<path d="M140.24 34.4286C140.24 29.2213 136.018 25 130.811 25H105.668C100.461 25 96.2397 29.2213 96.2397 34.4286V59.5714C96.2397 64.7787 100.461 69 105.668 69H130.811C136.018 69 140.24 64.7787 140.24 59.5714V34.4286Z" fill="#0067F5"/>
<rect width="14" height="15" transform="matrix(-1 0 0 1 149.24 39)" fill="#0067F5"/>
<path d="M79.2397 37.5C79.2397 37.7761 78.5682 38 77.7397 38C76.9113 38 76.2397 37.7761 76.2397 37.5C76.2397 37.2239 76.9113 37 77.7397 37C78.5682 37 79.2397 37.2239 79.2397 37.5Z" fill="#E1F6FF"/>
<path d="M104.24 46C104.24 54.8366 103.344 62 102.24 62C101.135 62 100.24 54.8366 100.24 46C100.24 37.1634 101.135 30 102.24 30C103.344 30 104.24 37.1634 104.24 46Z" fill="#E1F6FF"/>
<path d="M103.24 26.2609C103.24 22.8031 100.33 20 96.7397 20C93.1499 20 90.2397 22.8031 90.2397 26.2609V67.7391C90.2397 71.1969 93.1499 74 96.7397 74C100.33 74 103.24 71.1969 103.24 67.7391V26.2609Z" fill="#0067F5"/>
<rect x="0.760254" y="42.6506" width="10" height="8" fill="#0E397C"/>
<path d="M15.7603 34.4286C15.7603 29.2213 19.9816 25 25.1888 25H50.3317C55.5389 25 59.7603 29.2213 59.7603 34.4286V59.5714C59.7603 64.7787 55.5389 69 50.3317 69H25.1888C19.9816 69 15.7603 64.7787 15.7603 59.5714V34.4286Z" fill="#0067F5"/>
<rect x="6.76025" y="39" width="14" height="15" fill="#0067F5"/>
<path d="M51.7603 46C51.7603 54.8366 52.6557 62 53.7603 62C54.8648 62 55.7603 54.8366 55.7603 46C55.7603 37.1634 54.8648 30 53.7603 30C52.6557 30 51.7603 37.1634 51.7603 46Z" fill="#E1F6FF"/>
<path d="M52.7603 26.2609C52.7603 22.8031 55.6704 20 59.2603 20C62.8501 20 65.7603 22.8031 65.7603 26.2609V67.7391C65.7603 71.1969 62.8501 74 59.2603 74C55.6704 74 52.7603 71.1969 52.7603 67.7391V26.2609Z" fill="#0067F5"/>
<path d="M72.2397 1V11M54.2397 2L59.3864 10.5739M90.3345 2L85.2397 10.6048" stroke="#207CF4" stroke-width="2" stroke-linecap="round"/>
<path d="M72.2397 92V83M54.2397 91.1L59.3864 83.3835M90.3345 91.1L85.2397 83.3557" stroke="#207CF4" stroke-width="2" stroke-linecap="round"/>
</svg>